<svg id="color" enable-background="new 0 0 24 24" height="512" viewBox="0 0 24 24" width="512" xmlns="http://www.w3.org/2000/svg"><path d="m21 1h-18c-1.654 0-3 1.346-3 3v16c0 1.654 1.346 3 3 3h18c1.654 0 3-1.346 3-3v-16c0-1.654-1.346-3-3-3z" fill="#607d8b"/><path d="m21 21h-18c-.551 0-1-.448-1-1v-14h20v14c0 .552-.449 1-1 1z" fill="#fff"/><path d="m12 20c-3.559 0-6.886-2.104-8.901-5.628-.132-.23-.132-.514 0-.744 2.015-3.524 5.342-5.628 8.901-5.628s6.886 2.104 8.901 5.628c.132.23.132.514 0 .744-2.015 3.524-5.342 5.628-8.901 5.628z" fill="#2196f3"/><path d="m12 17c-1.654 0-3-1.346-3-3s1.346-3 3-3 3 1.346 3 3-1.346 3-3 3z" fill="#fff"/><path d="m7 20c-.256 0-.512-.098-.707-.293-.391-.391-.391-1.023 0-1.414l11-11c.391-.391 1.023-.391 1.414 0s.391 1.023 0 1.414l-11 11c-.195.195-.451.293-.707.293z" fill="#f44336"/><path fill="#546d79"/><path fill="#dedede"/><path fill="#dedede"/><path fill="#d43a2f"/></svg>